<svg xmlns="http://www.w3.org/2000/svg" version="1.1" width="600px" height="600px" viewBox="0 0 200 200" style="overflow:hidden!important;"><g id="svga-group-wrapper"><g id="svga-group-backs-single"><path id="SvgjsPath5241" d="M0 0h200v200H0V0z" fill="#ecf0f1" stroke-width="none" opacity="1"></path></g><g id="svga-group-humanwrap-move" transform="matrix(1,0,0,1,0,-2)"><g id="svga-group-humanwrap" transform="matrix(0.8499995000000001,0,0,0.8499995000000001,15.000050214577428,17.579334587119092)"><g id="svga-group-hair-back-move" transform="matrix(1,1.3877787807814457e-16,-1.3877787807814457e-16,1,1.4210854715202004e-14,0)"><g id="svga-group-hair-back"></g></g><g id="svga-group-humanbody-back"><path id="SvgjsPath5194" d="M180.8 184.9c-2.3-3.4-38.9-17.8-38.9-17.8l-13.4-5.2-5.6-68.8H76.8L71.3 162l-13.4 5.2S21.4 181.6 19 185c-2.3 3.4-3.3 14.9-3.3 14.9V219h168.5v-19.2c-.1.1-1-11.5-3.4-14.9z" fill="#b06c49" stroke-width="none" opacity="1" stroke="none"></path></g><g id="svga-group-chinshadow-single"><path id="SvgjsPath5190" d="M85.7 157.38c2.95 2.5 14.4 2.34 17.66.34 3.2-1.96 8.57-7.52 22.92-23.62l-3.34-41H76.82l-4.05 50.95c6.27 6.89 11.03 11.73 12.93 13.33z" fill="#91461f" stroke-width="none" opacity="1" stroke="none"></path></g><g id="svga-group-humanbody-front"><path id="SvgjsPath5195" d="M184.5 219c-.1-6.4-.1-12.8-.1-19.2l-.3-.1s.1-.1.2 0c.1 0 .1.1.1.1v-.4l-.1-.5-.1-.9-.2-1.9c-.2-1.3-.4-2.5-.6-3.8-.2-1.3-.5-2.5-.9-3.8-.4-1.2-.8-2.5-1.5-3.6-.8-.9-1.9-1.5-2.9-2.1-1-.6-2.1-1.1-3.2-1.7-2.1-1.1-4.3-2.1-6.5-3.1-4.4-2-8.7-3.9-13.1-5.7-4.4-1.9-8.8-3.7-13.2-5.5l-13-5.2-1.2-16.9c-.4-5.7-.9-11.5-1.3-17.2l-1.3-17.2-1.5-17.3-.1-.8h-.8c-7.7 0-15.4.1-23.1.1l-23.1.2h-.5v.5L75 110.2l-1.3 17.2c-.8 11.4-1.8 22.8-2.8 34.2-5.6 2.1-11.2 4.2-16.7 6.4-5.6 2.2-11.2 4.5-16.8 6.9-2.8 1.2-5.6 2.4-8.3 3.6-2.8 1.3-5.5 2.5-8.2 4.1-.7.4-1.3.8-2 1.4-.2.1-.4.4-.5.6l-.3.6c-.2.4-.4.7-.5 1.1-.6 1.5-1 3-1.3 4.5-.6 3-1.1 6-1.4 9.1l-.1 19.1v.9h.9l42.1.1H100c14 0 28.1-.1 42.1-.2l42.1-.5h.3v-.3zm-84.5-1-42.1-.1-41.2.1-.1-18.1c.3-3 .6-5.9 1.2-8.9.3-1.4.6-2.9 1.1-4.2.1-.3.3-.7.4-.9l.2-.4.3-.3c.5-.4 1.1-.8 1.8-1.2 2.5-1.5 5.3-2.8 8-4.1 2.7-1.3 5.5-2.5 8.2-3.7 5.5-2.4 11.1-4.8 16.7-7.1s11.2-4.5 16.9-6.7l.2-.1v-.2c.9-11.5 1.7-23 2.7-34.4l1.4-17.2 1.5-16.7 22.6.2c7.4.1 14.8.1 22.3.1l1.3 16.4 1.5 17.2c.5 5.7 1 11.5 1.5 17.2l1.6 17.2v.3l.3.1 13.4 5c4.4 1.7 8.9 3.4 13.3 5.2 4.4 1.8 8.8 3.7 13.2 5.6 2.2 1 4.3 2 6.5 3 1.1.5 2.1 1.1 3.2 1.6 1 .6 2.1 1.2 2.9 2 .7 1.1 1.1 2.3 1.4 3.5.3 1.2.6 2.5.8 3.7.2 1.3.4 2.5.6 3.8l.2 1.9.1.9.1.5v.4c0 6.3 0 12.6-.1 18.9l-41.8-.5c-14 .1-28.1 0-42.1 0z" fill="#82360f" stroke-width="none" opacity="1" stroke="none"></path><path id="SvgjsPath5196" d="M125.1 142.4s-1.8 23-9.1 32.9c0 0 7.9-25 9.1-32.9zm-34.5 16s5 7.9 11.5 10.1c0 0-9.5 2.2-11.5-10.1zM73.4 140c6.7 25.6 6.7 25.6 8.5 30.7 0 0 .4-12.6-8.5-30.7z" fill="#91461f" stroke-width="none" opacity="1" stroke="none"></path></g><g id="svga-group-clothes-single"><path id="SvgjsPath10155" d="m71.9 145.1-6.2 2.5-.7 14.1v20.2L79 220h42l10.7-34.3 3.4-25.5-1.7-14.2-5.4-.8-.3 9.2s-26.2 22.2-26.6 22.7-29.2-22.8-29.2-22.8v-9.2z" fill="#eaeaea" stroke-width="none" opacity="1"></path><path id="SvgjsPath10156" d="m127.8 155.4.8-.3 4.9-9-5.5-.9-.2 10.2zm-56.3-1.6h-.4l-5.2-6.1 6.3-2.6-.7 8.7z" fill="#c9c9c9" stroke-width="none" opacity="1"></path><path id="SvgjsPath10157" d="m44.6 168 1.1 1.7s-24.9 7.2-29 9c0 0-4.4-3.1-6 3.4-1.6 6.5-3.8 30.8-3.8 37.9h72s-8.7-29-14.1-59.9L44.6 168zm144.6 14.1c-1.6-6.5-6-3.4-6-3.4-4.1-1.9-29-9-29-9l1.1-1.7-20.3-7.8c-5.3 30.8-14 59.8-14 59.8h72c.1-7.2-2.2-31.4-3.8-37.9z" fill="#000000" stroke-width="none" opacity="1"></path><path id="SvgjsPath10158" d="M89 180.6s4.9 12.4 6.4 15.4c0 0-2.8 17.1-2.9 23.8h18s-2.5-20-3.1-24.1c0 0 4.4-11 5.7-13.9 0 0-2.7-3.4-3.8-3.6-1.1-.2-8.7-.8-8.7-.8s-7.3.9-8.7 1.4c-1.4.4-2.9 1.8-2.9 1.8z" fill="#222222" stroke-width="none" opacity="1"></path><path id="SvgjsPath10159" d="M106.9 196c-1.1.5-3.8 1.9-5.2 2.1h-.5c-1.6-.1-4.2-1.3-5.3-1.8v-.2c.6.1 1.6.2 2.9.5 1.7.4 6.5-.4 8.1-.7m-5.5 17.2c1.2 1.5 3.4 2.7 3.1 1-.2-1.7-3.3-15.8-3.4-16-.1.7-.9 13.5.3 15zm-2.8-17.3s-.1-8.9-.6-9.8c-.5-.9-1.7-.1-2.1 1.8-.5 2 2.3 7.6 2.7 8zm-1.8 15.8c.5 2.7 1.9-.4 2.1-3.6.2-3.2-1.1-10.6-1.1-10.6-.2.5-1.5 11.4-1 14.2zm7.4-27.7c-1-1.1-2.5 1.9-2.8 4-.4 2.1-.2 6.3-.2 7.8-.1 0 3.9-10.7 3-11.8zm3.2 6.8c.6-1.2-.6-2.2-1.5-1.7s-1.7 5.3-2.1 7.2c0 0 3-4.2 3.6-5.5zm-2.4 18.4c.5 1 1.9 2.2 2.1 1.5.2-.7-2.7-12.5-2.7-12.5s.1 10 .6 11z" fill="#000000" stroke-width="none" opacity="1"></path><path id="SvgjsPath10160" d="m192.7 208.3-.9-11.6c-.3-3.9-.7-7.8-1.3-11.6-.2-1-.3-1.9-.5-2.9s-.5-2-1.1-3c-.5-1-1.6-1.9-2.9-2.1-.6-.1-1.2 0-1.8.1-.4.1-.8.3-1.2.5-2.3-.9-4.6-1.6-6.8-2.4l-7.3-2.2c-4.6-1.4-9.1-2.7-13.7-3.9l.6-.9.5-.7-.8-.3c-3.5-1.3-7-2.5-10.4-3.8l-9.2-3.2c0-.1 0-.2.1-.4l-2.2-14.2-6-1.4s-.5 4.6-.5 9.7l-13.8 11c-2.2 1.9-4.5 3.8-6.7 5.8l-3.3 2.9-1.7 1.5-.8.8c-2.3-1.6-4.6-3.4-6.9-5.1l-7.1-5.4-14.6-11.4.1-9.8c-.5.5-6.2 2.5-6.8 3v.1l-.6 8.6-.3 4-10 3.5c-3.4 1.2-6.9 2.5-10.4 3.8l-.8.3.5.7.6.9c-4.6 1.2-9.2 2.5-13.7 3.9l-7.3 2.2c-2.3.8-4.5 1.4-6.9 2.4-.4-.2-.7-.4-1.1-.5-.6-.2-1.2-.2-1.8-.1-1.3.2-2.3 1.1-2.8 2-.6 1-.9 2-1.1 3-.2 1-.3 2-.5 2.9-.5 3.9-.9 7.8-1.3 11.6l-.9 11.6c-.3 3.9-.6 7.8-.7 11.7v.3h.3c6 0 12 .1 18 .2l18 .3 18.1.3h78l18-.1c6-.1 12-.1 18-.3 6-.1 12-.2 18-.2h.4v-.4c-.1-3.9-.4-7.8-.7-11.7zm-88.1-33 3.4-2.9 6.8-5.7 13.6-11.5.2-.2-.4-9.6c1.8.4 3.6.8 5 1.1l1.1 13.6-1.1 8.5-1.4 6.4c-1.1 5-2.4 10-3.6 14.9-.7 2.9-1.5 5.9-2.3 8.8-.3-.8-.6-1.6-1-2.4-.3-.7-.6-1.4-1-2.1-.3-.7-.8-1.4-1.2-2-1.8-2.6-3.6-5-5.5-7.4-1-1.2-2-2.4-3-3.5-1.1-1.1-2.1-2.3-3.5-3.3-.3-.2-.7-.5-1.1-.7-.2-.1-.5-.2-.8-.3-.3-.1-.4 0-.6-.1l-2.3-.3-2.5-.3 1.2-1zm-38.8-19.1.2-8.5 5.7-2.1-.6 8.2 1.4 1.6h.1c4.5 3.8 9.1 7.6 13.7 11.3 2.3 1.9 4.6 3.7 6.9 5.6 1.8 1.4 3.5 2.8 5.4 4.2l-2.1.3c-.8.1-1.5.2-2.3.4l-1.2.2c-.2.1-.3.1-.6.1-.3.1-.5.2-.7.3-1.6.9-2.7 2-3.8 3.1-1.1 1.1-2.1 2.3-3.2 3.5-2 2.4-3.9 4.9-5.7 7.4-.9 1.3-1.8 2.6-2.6 3.9-.7 1.1-1.4 2.2-2 3.3-.8-2.9-1.5-5.9-2.3-8.8-1.2-5-2.5-9.9-3.6-14.9l-1.7-7.5-1-4.7c-.2-2.4-.1-4.8 0-6.9zM7.3 219.6c0-3.8.3-7.5.6-11.3.3-3.9.7-7.7 1.2-11.6.5-3.9 1-7.7 1.7-11.5.4-1.9.7-3.9 1.6-5.3.5-.7 1-1.2 1.7-1.2.7-.1 1.5.2 2.1.6l.4.3.4-.2c.6 1.4 1.1 2.7 1.6 4.1.6 1.7 1.1 3.4 1.3 5.1.5 3.5.8 7 1.2 10.5l1.2 10.5.7 5.3.6 4.5c-5.3.1-10.8.2-16.3.2zM61 219l-18 .1c-6 .1-12 .1-18 .3h-1.1c-.1-3.3-.4-6.5-.6-9.8-.3-3.5-.6-7-1-10.6-.4-3.5-.8-7-1.5-10.5-.7-3.2-2-6.3-3.5-9.1 2.2-.9 4.6-1.6 7-2.4l7.2-2.3 14.5-4.5h.1c.3.3.5.6.8.9.8.8 1.6 1.6 2.5 2.3-1.2.6-2.5 1.2-3.7 1.9l-.7.3.3.7c1.6 3.7 3.3 7.4 5 11 1.7 3.7 3.5 7.3 5.2 10.9l5.4 10.8c1.7 3.3 3.4 6.5 5.2 9.7-1.7.3-3.4.3-5.1.3zm5.3 0c-1.3-3.5-2.8-6.9-4.2-10.3-1.6-3.7-3.2-7.4-4.9-11.1-1.7-3.7-3.4-7.3-5.1-11-1.6-3.4-3.3-6.8-5-10.2 2.3-1.4 4.6-2.7 6.9-4.1l7.5-4.7c-1.4.6-2.7 1.2-4 1.8l-4 1.9c-1.3.7-2.7 1.4-4 2-.6-1-1.3-1.9-2-2.8-.5-.7-1.1-1.3-1.6-2l-.3-.4c3-1.2 6.1-2.5 9.1-3.8l10-4.2c0 .5.4 2.5.7 3.7l.3 1.8.3 1.9c.4 2.5.8 5.1 1.3 7.6 1 5 1.9 10.1 3.1 15.1 2.1 9.6 4.5 19.1 7.2 28.5-3.8.2-7.5.3-11.3.3zm13.6.2c-1.4-4.7-2.7-9.5-4-14.3-.5-2-1.1-3.9-1.6-5.9 1.7-2.3 3.5-4.5 5.3-6.7 2-2.4 4-4.7 6.1-7 1-1.1 2.1-2.2 3.2-3.3l.1-.1c1.2 3.1 4.6 11.4 5.9 14.1-.3 1.7-2.7 16.8-2.9 23.3l-12.1-.1zm13.1.1c.2-6.6 2.7-21.7 2.9-23.2v-.1l-.1-.1c-1.2-2.5-4.9-11.7-6-14.5.8-.7 1.7-1.4 2.5-1.8.1-.1.3-.1.4-.1.1 0 .3-.1.5-.1l1.1-.2c.8-.1 1.5-.2 2.3-.3 1.5-.2 3-.3 4.5-.5l4.5.5 2.3.2c.2 0 .4 0 .5.1.1 0 .2 0 .3.1.3.1.5.3.8.5 1 .7 1.9 1.6 2.8 2.5-1.5 3.5-5.4 13.3-5.5 13.4v.2c.6 4 2.7 20.3 3.1 23.5l-16.9-.1zm18 .3c-.2-1.5-2.5-19.7-3.1-23.9.4-1.1 3.8-9.4 5.2-12.9 1 1 1.9 2 2.8 3 2 2.3 4 4.6 5.9 7 .5.6 1 1.2 1.4 1.8.4.6.8 1.3 1.1 2l1.3 2.5-1.5 5.7c-1.3 4.9-2.7 9.9-4.2 14.8-2.9.1-5.9.1-8.9 0zm11.4-.7c2.7-9.4 5.1-18.9 7.2-28.5 1.1-5 2.1-10.1 3.1-15.1.4-2 .7-4.1 1.1-6.1 1-2.8 1.8-5.7 2.2-8.7l9.3 3.9c3.1 1.3 6.1 2.5 9.1 3.8l-.3.4c-.6.6-1.1 1.3-1.6 2-.7.9-1.3 1.8-1.9 2.8-1.3-.7-2.7-1.4-4-2l-4-1.9c-1.3-.6-2.7-1.3-4-1.8l7.5 4.7c2.3 1.4 4.6 2.8 6.9 4.1-1.7 3.4-3.4 6.8-5 10.2-1.8 3.6-3.4 7.3-5.1 11-1.7 3.7-3.3 7.4-4.9 11.1-1.5 3.4-2.9 6.8-4.2 10.3-3.9-.1-7.6-.2-11.4-.2zm52.6.5-18-.3-18-.1h-5.2c1.8-3.2 3.5-6.5 5.2-9.7 1.9-3.6 3.7-7.2 5.4-10.8 1.8-3.6 3.5-7.3 5.2-10.9 1.7-3.7 3.4-7.3 5-11l.3-.7-.7-.3c-1.2-.6-2.5-1.3-3.7-1.9.9-.7 1.7-1.5 2.5-2.3.3-.3.5-.6.8-.9h.1l14.5 4.5 7.2 2.3c2.4.8 4.8 1.5 7 2.4-1.6 2.8-2.9 5.9-3.5 9.1-.7 3.5-1.1 7-1.5 10.5-.4 3.5-.8 7-1 10.6-.2 3.3-.5 6.5-.6 9.8-.2-.3-.6-.3-1-.3zm1.2 0 .6-4.5.7-5.3c.5-3.5.8-7 1.2-10.5l1.2-10.5c.2-1.7.7-3.4 1.3-5.1.5-1.4 1-2.8 1.6-4.1l.4.2.4-.3c.6-.4 1.5-.7 2.1-.6.7.1 1.3.5 1.7 1.2.9 1.4 1.2 3.4 1.6 5.3.7 3.8 1.2 7.6 1.7 11.5.5 3.8.9 7.7 1.2 11.6.3 3.8.6 7.5.6 11.3-5.3 0-10.8-.1-16.3-.2z" fill="#000000" stroke-width="none" opacity="1"></path><path id="SvgjsPath10161" d="M111 174.5c3.5.2 9.7 9.1 9.7 9.1s8.9-15.3 9.7-19c.8-3.6 2-14.2 2-14.2s-3 9.7-3.8 11.1-17.6 13-17.6 13zm-33.5 15c2-3.5 8.4-11.7 9.9-12.5 1.5-.8 7.6-1.6 7.6-1.6l-15-10.9s2.1 8.2 2.1 10.1-4.6 14.9-4.6 14.9z" fill="#ffffff" stroke-width="none" opacity="1"></path><path id="SvgjsPath10162" d="M184.7 180.9c2.3.8 3.3 6.6 4.1 9.7.8 3.1 2.3 25.1 2.3 25.1s-3.1-25.1-4.6-28.7c-1.5-3.6-1.8-6.1-1.8-6.1zM155 172c1.5-.2 21.9 5.8 25.7 8.2 0 0-10.6-2.3-15.3-3.6-4.8-1.3-10.4-4.6-10.4-4.6zm-16.3-2.6c1 .5 13 7.8 13 7.8s-11.7 24.1-12.9 27.1-5.4 11.7-5.4 11.7 6.1-16.8 7.8-22.6c1.6-5.8 6.1-15.7 6.1-15.7l-8.6-8.3zm-74.2-2.8c.5 5.3 7.8 40.6 10.9 47.8 0 0-6.6-15.3-9.7-29.5-3.2-14.2-1.2-18.3-1.2-18.3z" fill="#0f0f0f" stroke-width="none" opacity="1"></path></g><g id="svga-group-head" transform="matrix(1,1.3877787807814457e-16,-1.3877787807814457e-16,1,1.4210854715202004e-14,0)"><g id="svga-group-ears-left-move" transform="matrix(1,0,0,1,0,0)"><g id="svga-group-ears-left"><path id="SvgjsPath5094" d="M68.53 80.36s-11.15-9.8-12.94-9.96c-1.54-.14-5.36 8.01-7.05 13.16-.45 1.36-.34 2.88.25 4.2 1.62 3.57 5.21 11.04 8.43 14.78 0 0 2.72.59 3.58.33.86-.25 7.58-5.67 8.27-7.77s.83-11.3-.54-14.74z" fill="#b06c49" stroke-width="none" opacity="1" stroke="none"></path><path id="SvgjsPath5095" d="M69.49 84.19c.18 1.31.28 2.64.33 3.96.05 1.32.06 2.65-.01 3.98a26.7 26.7 0 0 1-.17 1.99c-.05.34-.1.67-.2 1.02s-.28.7-.46.96c-.72 1.11-1.6 1.95-2.47 2.8-.88.84-1.78 1.63-2.71 2.4-.47.38-.93.75-1.42 1.11-.24.18-.49.35-.74.52l-.4.24c-.16.08-.35.17-.53.19-.67.08-1.23-.01-1.82-.09-.58-.08-1.15-.19-1.73-.32l-.13-.03-.08-.1c-1.45-1.74-2.63-3.68-3.74-5.65-1.1-1.98-2.1-4.03-3.06-6.1l-1.41-3.11c-.5-1.05-.71-2.29-.54-3.46.06-.59.26-1.14.44-1.67.18-.54.37-1.07.56-1.6.4-1.05.79-2.11 1.22-3.15.86-2.07 1.76-4.13 2.94-6.02.3-.47.62-.93 1-1.36.19-.21.4-.42.67-.59.13-.08.3-.16.52-.16.19.01.32.07.47.12 1.06.47 1.87 1.14 2.75 1.76 1.72 1.29 3.37 2.66 5 4.09 1.64 1.41 3.22 2.86 4.81 4.38.49 1.27.72 2.58.91 3.89zM58.4 72.51c-.85-.59-1.75-1.26-2.59-1.61-.09-.02-.2-.08-.26-.08-.04 0-.12.02-.2.07-.17.1-.35.25-.51.44-.34.36-.65.8-.94 1.24-1.16 1.8-2.18 3.77-3.11 5.77-.46 1.01-.92 2.02-1.32 3.06-.2.52-.4 1.04-.59 1.57-.19.53-.38 1.05-.45 1.6-.15 1.11.06 2.27.55 3.26.47 1.03.98 2.05 1.49 3.05 1.02 2.02 2.12 3.99 3.26 5.91 1.15 1.91 2.36 3.79 3.76 5.42l-.21-.13c1.09.2 2.3.43 3.29.33.11-.01.18-.06.28-.11l.35-.22.7-.5c.47-.34.93-.71 1.39-1.08.92-.74 1.81-1.52 2.68-2.34.85-.82 1.73-1.66 2.39-2.61.17-.25.29-.46.38-.72.08-.27.14-.58.19-.89.09-.63.17-1.27.21-1.91.1-1.29.14-2.6.15-3.9.01-1.31-.04-2.62-.15-3.92-.11-1.3-.27-2.62-.66-3.84-3.33-2.62-6.67-5.35-10.08-7.86z" fill="#a15833" stroke-width="none" opacity="1" stroke="none"></path><path id="SvgjsPath5096" d="M68.79 88.66S58.04 75.08 56.02 76.21c-2.01 1.12-5.19 7.53-5.18 9.67.02 3.14 3.34 8.38 5.01 9.96s3.68 2.55 6.35 1.94c2.66-.61 6.59-9.12 6.59-9.12z" fill="#a15833" stroke-width="none" opacity="1" stroke="none"></path><path id="SvgjsPath5097" d="M60.61 88.64c-.45-1.26-.95-2.5-1.45-3.74a49.61 49.61 0 0 0-1.66-3.64c-.61-1.18-1.22-2.36-1.97-3.45l-.08-.12-.08.12c-.75 1.18-1.45 2.38-2.12 3.62-.33.62-.66 1.25-.96 1.89-.31.64-.57 1.31-.84 1.98l-.04.1.04.12c.46 1.41.96 2.79 1.47 4.18.25.69.54 1.37.83 2.05.3.68.59 1.35.99 2.01l.19.31.25-.23c.34-.31.6-.65.87-1.02.26-.37.49-.76.69-1.17.4-.82.63-1.78.6-2.74v-.06l-.02-.04c-.5-.99-1.03-1.96-1.55-2.94l-.05.03c.42 1.01.83 2.03 1.26 3.03-.04.86-.3 1.68-.68 2.41-.33.62-.77 1.17-1.24 1.65-.26-.49-.5-1.02-.73-1.56l-.81-2.03c-.53-1.32-1.03-2.66-1.52-3.99.45-1.3.94-2.59 1.52-3.82.57-1.23 1.22-2.41 1.96-3.51.67 1.04 1.17 2.23 1.68 3.39l1.54 3.67 1.56 3.67c.52 1.22 1.05 2.45 1.6 3.66l.06-.03c-.41-1.27-.85-2.54-1.31-3.8z" fill="#82360f" stroke-width="none" opacity="1" stroke="none"></path></g></g><g id="svga-group-ears-right-move" transform="matrix(1,0,0,1,0,0)"><g id="svga-group-ears-right"><path id="SvgjsPath5098" d="M131.47 80.36s11.15-9.8 12.94-9.96c1.54-.14 5.36 8.01 7.05 13.16.45 1.36.34 2.88-.25 4.2-1.62 3.57-5.21 11.04-8.43 14.78 0 0-2.72.59-3.58.33-.86-.25-7.58-5.67-8.27-7.77s-.83-11.3.54-14.74z" fill="#b06c49" stroke-width="none" opacity="1" stroke="none"></path><path id="SvgjsPath5099" d="M131.44 80.33c1.58-1.52 3.17-2.97 4.81-4.38 1.62-1.42 3.28-2.8 5-4.09.88-.63 1.69-1.29 2.75-1.76.16-.04.28-.11.47-.12.21 0 .38.08.52.16.28.17.49.37.67.59.38.43.7.89 1 1.36 1.18 1.89 2.07 3.96 2.94 6.02.43 1.04.82 2.09 1.22 3.15.19.53.38 1.06.56 1.6.18.53.37 1.08.44 1.67.17 1.17-.04 2.41-.54 3.46l-1.41 3.11c-.97 2.06-1.96 4.11-3.06 6.1-1.11 1.98-2.29 3.92-3.74 5.65l-.08.1-.13.03c-.58.13-1.15.23-1.73.32-.59.07-1.16.16-1.82.09-.18-.02-.37-.11-.53-.19l-.4-.24c-.25-.17-.5-.34-.74-.52-.48-.36-.95-.73-1.42-1.11-.93-.76-1.83-1.56-2.71-2.4-.87-.86-1.75-1.69-2.47-2.8a3.42 3.42 0 0 1-.46-.96c-.1-.35-.14-.69-.2-1.02-.08-.67-.14-1.33-.17-1.99-.07-1.33-.07-2.65-.01-3.98.06-1.32.15-2.65.33-3.96.17-1.34.4-2.65.91-3.89zm.06.06c-.4 1.21-.56 2.54-.66 3.84-.1 1.3-.15 2.61-.15 3.92.01 1.31.06 2.61.15 3.9.05.65.12 1.29.21 1.91.06.31.11.62.19.89.09.26.2.47.38.72.66.94 1.54 1.79 2.39 2.61.86.81 1.76 1.59 2.68 2.34.46.37.92.73 1.39 1.08l.7.5.35.22c.1.05.17.1.28.11.99.1 2.2-.13 3.29-.33l-.21.13c1.4-1.63 2.61-3.51 3.76-5.42 1.14-1.92 2.24-3.89 3.26-5.91.51-1.01 1.02-2.02 1.49-3.05.49-.99.7-2.15.55-3.26-.07-.56-.26-1.07-.45-1.6s-.38-1.05-.59-1.57c-.4-1.04-.86-2.06-1.32-3.06-.93-2.01-1.95-3.97-3.11-5.77-.29-.44-.6-.88-.94-1.24-.17-.18-.35-.34-.51-.44a.431.431 0 0 0-.2-.07c-.06 0-.17.06-.26.08-.84.35-1.74 1.02-2.59 1.61-3.39 2.49-6.73 5.22-10.08 7.86z" fill="#a15833" stroke-width="none" opacity="1" stroke="none"></path><path id="SvgjsPath5100" d="M131.21 88.66s10.75-13.58 12.77-12.45c2.01 1.12 5.19 7.53 5.18 9.67-.02 3.14-3.34 8.38-5.01 9.96s-3.68 2.55-6.35 1.94c-2.66-.61-6.59-9.12-6.59-9.12z" fill="#a15833" stroke-width="none" opacity="1" stroke="none"></path><path id="SvgjsPath5101" d="M148.54 85.31c-.26-.67-.52-1.34-.84-1.98-.3-.64-.62-1.27-.96-1.89-.67-1.24-1.38-2.44-2.12-3.62l-.08-.12-.08.12c-.74 1.1-1.36 2.27-1.97 3.45-.6 1.18-1.14 2.4-1.66 3.64-.49 1.24-1 2.48-1.45 3.74-.46 1.26-.9 2.53-1.28 3.81l.06.03c.55-1.21 1.07-2.44 1.6-3.66l1.56-3.67 1.54-3.67c.51-1.16 1.01-2.35 1.68-3.39.74 1.1 1.39 2.29 1.96 3.51.58 1.24 1.08 2.52 1.52 3.82-.5 1.34-.99 2.67-1.52 3.99l-.81 2.03c-.23.53-.47 1.07-.73 1.56-.47-.48-.91-1.03-1.24-1.65-.39-.73-.64-1.55-.68-2.41.43-1 .84-2.02 1.26-3.03l-.05-.03c-.52.98-1.05 1.95-1.55 2.94l-.02.04v.06c-.03.96.2 1.92.6 2.74.2.41.43.81.69 1.17.26.36.53.71.87 1.02l.25.23.19-.31c.4-.67.69-1.34.99-2.01.29-.68.57-1.36.83-2.05.51-1.38 1.01-2.77 1.47-4.18l.04-.12-.07-.11z" fill="#82360f" stroke-width="none" opacity="1" stroke="none"></path></g></g><g id="svga-group-faceshape-wrap"><g id="svga-group-faceshape-single"><path id="SvgjsPath5176" d="M140.4 54.9c-2.2-10-6.3-16-15.2-20.8-9.3-5-25.2-4.8-25.2-4.8s-15.9-.2-25.2 4.8c-8.8 4.8-13 10.8-15.2 20.8-.9 4 0 13.6 0 13.6s1.6 12.3 1.7 18.2c.2 5.8 1.4 18 2.2 25.1.98 7.08 1.46 7.68 1.46 7.68 12.25 14.4 22.69 25.32 25.74 27.9 2.95 2.5 14.4 2.34 17.66.34 3.46-2.12 9.44-8.42 26.53-27.68 0 0 .27-1.05 1.07-8.15s2.13-16.31 2.54-25.19c.2-5.8 1.7-18.2 1.7-18.2.1-.1 1.1-9.6.2-13.6z" fill="#b06c49" stroke-width="none" opacity="1" stroke="none"></path><path id="SvgjsPath5177" d="M140.4 54.9c-2.2-10-6.3-16-15.2-20.8-9.3-5-25.2-4.8-25.2-4.8s-15.9-.2-25.2 4.8c-8.8 4.8-13 10.8-15.2 20.8-.9 4 0 13.6 0 13.6s1.6 12.3 1.7 18.2c.2 5.8 1.4 18 2.2 25.1.98 7.08 1.46 7.68 1.46 7.68 12.25 14.4 22.69 25.32 25.74 27.9 2.95 2.5 14.4 2.34 17.66.34 3.46-2.12 9.44-8.42 26.53-27.68 0 0 .27-1.05 1.07-8.15s2.13-16.31 2.54-25.19c.2-5.8 1.7-18.2 1.7-18.2.1-.1 1.1-9.6.2-13.6zm-.03 10.19-.33 3.24-.06.13c-.55 4.29-1.13 8.57-1.59 12.87-.24 2.14-.41 4.33-.56 6.47-.17 2.14-.39 4.28-.63 6.42-.49 4.28-1.14 8.54-1.72 12.82-.3 2.13-.6 4.3-.86 6.43l-.43 3.2-.23 1.59-.13.78-.08.41-10.86 12.02c-3.72 4.04-7.41 8.17-11.32 11.92-.98.92-1.98 1.83-3 2.6-.25.2-.51.36-.77.54-.14.1-.57.32-.71.37-.53.22-1.14.39-1.76.52-2.52.53-5.25.65-7.89.51-1.32-.09-2.64-.24-3.86-.56-.6-.16-1.19-.36-1.66-.61-.1-.07-.51-.34-.64-.46-.25-.21-.49-.43-.74-.66-1.98-1.83-3.9-3.82-5.82-5.78-3.83-3.94-7.58-7.98-11.27-12.06l-5.53-6.13-1.36-1.54-.68-.77-.17-.19s-.17-.3-.2-.42c-.36-1.24-.61-2.62-.85-3.96-.5-2.7-.79-5.41-1.12-8.16-.31-2.74-.65-5.47-.9-8.22-.26-2.74-.51-5.49-.7-8.23-.21-2.73-.23-5.5-.48-8.26-.21-2.76-.48-5.5-.78-8.25-.27-2.76-.67-5.47-.76-8.21-.12-2.74-.16-5.5.06-8.19.06-.67.14-1.34.28-1.97.14-.64.33-1.31.49-1.97.37-1.31.78-2.6 1.27-3.85.98-2.51 2.25-4.89 3.93-6.95 1.64-2.09 3.68-3.83 5.88-5.34 1.1-.76 2.26-1.43 3.44-2.08 1.16-.62 2.38-1.12 3.64-1.58 2.52-.9 5.16-1.51 7.83-1.97 2.67-.48 5.38-.8 8.09-1 2.72-.21 5.43-.32 8.16-.24 5.45.14 10.94.63 16.2 2.02 2.64.7 5.16 1.68 7.52 3.07 2.36 1.36 4.6 2.96 6.51 4.92 1.86 1.99 3.45 4.26 4.57 6.77 1.14 2.5 1.94 5.14 2.54 7.83.23 1.1.29 2.24.33 3.37.03 1.13.01 2.27-.03 3.4-.1 1.13-.16 2.26-.26 3.39z" fill="#82360f" stroke-width="none" opacity="1" stroke="none"></path></g></g><g id="svga-group-mouth-single-move" transform="matrix(1,0,0,1,0,0)"><g id="svga-group-mouth-single"><path id="SvgjsPath5261" d="M119.75 120.2c-2.07.95-4.03 1.44-5.29 1.57-4.78.49-8.33.87-12.75 2.53-1.8.7-2.7.9-4.5.4-1.4-.4-2.8-.7-4.2-.9-2.1-.32-4.18.13-6.29.2-1.2.04-2.44-.29-3.84-.62-.7 0-1.25.22.14.97 3.11 1.68 5.12 1.2 8.62 2 2.4.5 6.2 3.44 8.6 2.64 3-1 6.57-3.23 9.57-4.23 3.3-1 4.76-.51 9.4-3.4.65-.45.99-1.37.54-1.16z" fill="#904539" stroke-width="none" opacity="1" stroke="none"></path></g></g><g id="svga-group-eyes-left-move" transform="matrix(1,0,0,1,0,0)"><g id="svga-group-eyes-left"><g id="svga-group-eyesback-left"><path id="SvgjsPath8045" d="M80.2 74.2c7.5 0 13.5 5.8 13.5 13s-6 13-13.5 13-13.5-5.8-13.5-13 6-13 13.5-13z" fill="#ffffff" stroke-width="none" opacity="1"></path></g><g id="svga-group-eyesiriswrapper-left" transform="matrix(1,0,0,1,0,0)"><g id="svga-group-eyesiriscontrol-left" transform="matrix(1,0,0,1,0,0)"><g id="svga-group-eyesiris-left"><path id="SvgjsPath7259" d="M80.2 81.6c3.1 0 5.6 2.5 5.6 5.6s-2.5 5.6-5.6 5.6-5.6-2.5-5.6-5.6 2.5-5.6 5.6-5.6z" fill="#362018" stroke-width="none" opacity="1"></path><path id="SvgjsPath7260" d="M80.2 84.2c1.7 0 3 1.3 3 3s-1.3 3-3 3-3-1.3-3-3 1.3-3 3-3z" fill="#000000" stroke-width="none" opacity="1"></path><path id="SvgjsPath7261" d="m79.5 84.8-.6-.6c-.2-.2-.5-.3-.8-.3s-.6.1-.8.3c-.2.2-.3.5-.3.8s.1.6.3.8l.6.6c.2.2.5.3.7.3.3 0 .6-.1.7-.3.6-.6.6-1.2.2-1.6zm2.7 5.1c1 0 1-1.5 0-1.5-.9 0-.9 1.5 0 1.5z" fill="#ffffff" stroke-width="none" opacity="1"></path></g></g></g><g id="svga-group-eyesfront-left"><path id="SvgjsPath8053" d="M80.2 73.7c-7.8 0-14.1 6.1-14.1 13.6s6.3 13.6 14.1 13.6 14.1-6.1 14.1-13.6S88 73.7 80.2 73.7zm-4.9 20.2c-4.8-1.7-6.4-6.7-7.2-10.1-.9-3.5 13.8-3.5 17.5-.4 3.8 3 5.3 7.3 5.5 9.6.1-.1-11 2.6-15.8.9z" fill="#b06c49" stroke-width="none" opacity="1" stroke="none"></path><path id="SvgjsPath8054" d="M91.1 92.5c-.1-.5-.1-1-.3-1.4l-.3-.9c-.5-1.9-1.5-4.5-3-6.2-1.2-1.3-4.1-4.4-9-4.4s-8.2 1.6-8.8 1.9c-.2.1-.5.3-.7.5-.4.2-.8.5-1.1 1-.1.2-.1.3-.1.5-.1.1-.1.2-.1.2h.1c0 .1 0 .3.1.4.1.3.2.6.2.9l.6 1.8c.4 1.2.9 2.3 1.6 3.4.7 1.1 1.5 2 2.5 2.8s2.2 1.3 3.4 1.6c2.5.5 5 .3 7.5 0s4.9-.8 7.3-1.5c.2-.2.2-.4.1-.6zm0 .4c-2.4.4-4.9.8-7.3 1.1-1.2.1-2.5.2-3.7.2-1.2 0-2.5 0-3.7-.2-2.4-.4-4.6-1.9-5.8-4-.7-1-1.2-2.2-1.6-3.3-.2-.6-.4-1.2-.5-1.8-.1-.3-.2-.6-.2-.9 0-.2-.1-.3-.1-.4 1.4-.4 6.6-1.9 10.5-1.9 4.5.1 7.9 3.6 9.3 5.1 1.2 1.1 3 5.1 3.1 6.1z" fill="#78402d" stroke-width="none" opacity="1" stroke="none"></path></g></g></g><g id="svga-group-eyes-right-move" transform="matrix(1,0,0,1,0,0)"><g id="svga-group-eyes-right"><g id="svga-group-eyesback-right"><path id="SvgjsPath8046" d="M119.8 74.2c7.5 0 13.5 5.8 13.5 13s-6 13-13.5 13-13.5-5.8-13.5-13 6-13 13.5-13z" fill="#ffffff" stroke-width="none" opacity="1"></path></g><g id="svga-group-eyesiriswrapper-right" transform="matrix(1,0,0,1,0,0)"><g id="svga-group-eyesiriscontrol-right" transform="matrix(1,0,0,1,0,0)"><g id="svga-group-eyesiris-right"><path id="SvgjsPath7262" d="M119.8 82.3c2.7 0 4.9 2.2 4.9 4.9s-2.2 4.9-4.9 4.9-4.9-2.2-4.9-4.9 2.2-4.9 4.9-4.9z" fill="#362018" stroke-width="none" opacity="1"></path><path id="SvgjsPath7263" d="M119.8 84.6c1.4 0 2.6 1.2 2.6 2.6s-1.2 2.6-2.6 2.6-2.6-1.2-2.6-2.6 1.2-2.6 2.6-2.6z" fill="#000000" stroke-width="none" opacity="1"></path><path id="SvgjsPath7264" d="M119.2 85.1c-.2-.2-.3-.4-.5-.5-.2-.2-.4-.3-.7-.3-.2 0-.5.1-.7.3-.2.2-.3.4-.3.7 0 .2.1.5.3.7.2.2.4.3.5.5.2.2.4.3.7.3.2 0 .5-.1.7-.3.3-.5.3-1.1 0-1.4zm2.4 4.5c.8 0 .9-1.3 0-1.3-.8-.1-.8 1.3 0 1.3z" fill="#ffffff" stroke-width="none" opacity="1"></path></g></g></g><g id="svga-group-eyesfront-right"><path id="SvgjsPath8055" d="M119.8 73.7c-7.8 0-14.1 6.1-14.1 13.6s6.3 13.6 14.1 13.6 14.1-6.1 14.1-13.6-6.3-13.6-14.1-13.6zm5.3 19.5c-4.4 1.8-15 .1-15 .1.1-1.9 1.3-5.8 4.7-8.7 3.4-2.9 17.2-3.8 16.6-.7-.7 3.1-1.9 7.6-6.3 9.3z" fill="#b06c49" stroke-width="none" opacity="1" stroke="none"></path><path id="SvgjsPath8058" d="M131.6 84.1s0-1.3-.9-1.7c-.6-.2-4.4-1-9.1-.7-2.6.2-4.6 1.1-6.1 2.1-.3.2-.6.3-.8.5-.9.8-1.7 1.6-2.4 2.6-1.3 1.9-2.3 4.1-2.3 6.4 0 .3.1.8.1.8s.1-.3.2-.7c2.2.4 4.3.7 6.6.8 1.2.1 2.3.1 3.4.1 1.2 0 2.3-.2 3.4-.4s2.2-.8 3.2-1.4c.9-.7 1.7-1.6 2.4-2.5.6-1 1.1-2 1.5-3.1.2-.5.3-1.1.5-1.7l.2-.8c0-.1 0-.1.1-.2v-.1zm-.4.1-.2.8c-.1.6-.3 1.1-.4 1.7-.4 1.1-.8 2.1-1.4 3.1-1.2 1.9-3.3 3.2-5.5 3.6-.6.1-1.1.2-1.7.3-.6 0-1.1.1-1.7.1-1.1.1-2.3.1-3.4 0-2.2-.1-4.4-.2-6.6-.4.4-1.5 1.5-4.6 2.4-5.7 1.2-1.5 4.2-4.5 8.5-4.9 3.6-.3 8.6.8 10 1.2v.2z" fill="#78402d" stroke-width="none" opacity="1" stroke="none"></path></g></g></g><g id="svga-group-facehighlight-single"></g><g id="svga-group-eyebrows-left-move" transform="matrix(1,0,0,1,0,0)"><g id="svga-group-eyebrows-left-rotate" transform="matrix(1,1.7453292519943295e-9,-1.7453292519943295e-9,1,1.2391838311032188e-7,-1.3753196981269866e-7)"><g id="svga-group-eyebrows-left"><path id="SvgjsPath8552" d="M93.2 68.2s-1.8 4.7-3.3 5.6-18.1.7-18.1.7-4.2 2.2-5.5 3.9l3.3-8.3.4.4 10.4-1.7-1.2.8 13-1.7-1.3 2.2 2.3-1.9z" fill="#2a232b" stroke-width="none" opacity="1"></path><path id="SvgjsPath8553" d="m66 79.1.4-.6c.3-.4.7-.8 1.1-1.2.2-.2.4-.3.7-.5.2-.2.5-.3.7-.5.5-.3 1-.6 1.4-.9s1-.6 1.5-.8c2.2.1 4.3.1 6.4.1 2.2 0 4.3 0 6.5-.1 1.1-.1 2.2-.1 3.2-.2.5-.1 1.1-.1 1.6-.3l.2-.1c.1 0 .1-.1.2-.1.1-.1.2-.2.3-.2l.3-.3.2-.3c.3-.4.5-.8.8-1.2l.6-1.2c.2-.4.4-.8.5-1.2.1-.2.2-.4.2-.6l.1-.3.1-.2v-.2l-1.2.9c-.3.2-.5.4-.8.6l1.1-1.8.1-.2h-.3l-3.3.4-3.3.4c-1.1.1-2.2.3-3.3.4l-2.2.3.4-.2.9-.6-1.1.2-2.6.4-2.6.4-5.1.8-.4-.3-.2-.2-.1.3-1.6 4.2-.4 2.2c-.3.7-.5 1.4-.8 2.1l-.2.6zm.6-1.1c.2-.5.4-1.1.7-1.6l.8-2.1 1.6-3.8.2.2.1.1h.1l5.2-.8 2.6-.4 1.5-.2-.4.1-.8.5 1.1-.1 3.3-.4c1.1-.1 2.2-.3 3.2-.5l3.2-.5 3-.4-1.1 2-.3.5.4-.4 1.1-.9c.4-.3.7-.6 1.1-1l-.1.1v.1l-.1.1-.1.3-.3.6-.6 1.2c-.4.8-.9 1.6-1.4 2.3l-.2.3-.2.2c-.1.1-.2.1-.3.2l-.1.1-.2.1c-.5.1-1 .2-1.6.2-1.1.1-2.1.2-3.2.2-2.2.1-4.3.1-6.5.2-2.2 0-4.3.1-6.5.1-1 .6-2 1.1-3 1.8-.5.3-.9.7-1.4 1-.3.1-.6.4-.8.6zm23.1-9c-.6.3-1.1.7-1.6 1-.5.3-1.1.7-1.6 1.1-.5.4-1 .7-1.6 1.1s-1 .8-1.5 1.1l.4.2c.2-.7.3-1.3.4-2l.1-.4-.4.3c-.6.5-1.2 1-1.7 1.5.7-.4 1.3-.8 1.9-1.3l-.3-.1c-.2.7-.4 1.3-.6 1.9l-.2.6.6-.4c.5-.4 1-.7 1.5-1.1l1.5-1.2 1.5-1.2c.6-.3 1.1-.7 1.6-1.1zm-10.9 1.6c-.7.4-1.4.9-2.2 1.4-.7.5-1.4.9-2.1 1.4l.4.2c.1-.3.2-.6.4-1 .1-.3.2-.6.4-1l.2-.5-.5.2c-.5.2-1.1.5-1.6.7s-1 .5-1.5.8c-.5.3-1 .6-1.4.9-.4.3-.9.7-1.2 1.1.4-.3.9-.6 1.4-.9.5-.3 1-.6 1.5-.8.5-.2 1-.5 1.5-.7.5-.2 1-.5 1.6-.7l-.3-.2c-.1.3-.2.6-.4 1-.1.3-.2.6-.3 1l-.2.6.6-.4c.7-.5 1.3-1 2-1.5.4-.5 1.1-1 1.7-1.6z" fill="#1b141c" stroke-width="none" opacity="1"></path></g></g></g><g id="svga-group-eyebrows-right-move" transform="matrix(1,0,0,1,0,0)"><g id="svga-group-eyebrows-right-rotate" transform="matrix(1,1.7453292519943295e-9,-1.7453292519943295e-9,1,1.2705996255135688e-7,-2.123193070246998e-7)"><g id="svga-group-eyebrows-right"><path id="SvgjsPath8554" d="M108.2 71.1s2.3 4.4 3.6 5.2c1.4.7 15.7-1.3 15.7-1.3s4 1.7 5.3 3.2l-4-7.8-.3.4-9.2-.5 1.2.6-11.5-.2 1.4 2-2.2-1.6z" fill="#2a232b" stroke-width="none" opacity="1"></path><path id="SvgjsPath8555" d="M132.9 78.2c-.3-.7-.7-1.3-1-2l-1-2-2-3.9-.1-.3-.2.2-.3.3-4.5-.3-2.3-.1-2.3-.1-1-.1.9.5.4.2H108.7l.1.2 1.2 1.6c-.2-.2-.5-.3-.8-.5-.4-.2-.8-.5-1.1-.8v.2l.1.2.2.3.3.6c.2.4.4.8.7 1.2.2.4.5.8.7 1.1s.5.7.8 1.1l.2.3.3.2c.1.1.2.1.3.2.1 0 .1.1.2.1h.2c.5.1 1 .1 1.4.1.9 0 1.9-.1 2.8-.2 1.9-.1 3.7-.4 5.6-.6 1.8-.2 3.7-.5 5.5-.8.5.2.9.4 1.4.6.5.2.9.5 1.4.7.2.1.4.3.7.4.2.1.4.3.6.4.4.3.8.6 1.1 1l.4.5-.1-.5zm-1.2-1.1c-.4-.3-.9-.6-1.3-.8-.9-.5-1.8-1-2.8-1.4-1.8.2-3.7.5-5.6.7-1.9.2-3.7.4-5.6.6-.9.1-1.9.2-2.8.2-.5 0-.9 0-1.4-.1H111.9c-.1-.1-.2-.1-.3-.2l-.2-.2-.2-.2c-.6-.7-1.1-1.4-1.6-2.2-.2-.4-.5-.8-.7-1.1l-.3-.6-.2-.3-.1-.2v-.1l-.1-.1c.4.3.7.6 1.1.8l1.1.8.4.3-.3-.4-1.3-1.8 2.6.1 2.9.1c.9 0 1.9.1 2.9.1l2.9.1h.9l-.8-.4-.3-.2 1.3.1 2.3.1 4.6.2h.1l.1-.1.1-.2 1.9 3.6 1 1.9c.3.5.5 1 .8 1.5-.2-.2-.5-.4-.8-.6zm-20.4-5.6c.5.3 1 .6 1.6.8s1 .6 1.5.9l1.5.9 1.5.9-.3.2c-.2-.6-.4-1.3-.7-1.9l-.1-.4.3.3c.6.4 1.1.8 1.7 1.3-.6-.3-1.2-.7-1.8-1.1l.2-.2c.3.6.5 1.2.8 1.9l.2.6-.5-.3-1.5-.9c-.5-.3-1-.6-1.5-1s-1-.7-1.4-1c-.5-.3-1-.7-1.5-1zm9.6.3c.7.3 1.4.7 2.1 1.1s1.3.8 2 1.2l-.3.2c-.2-.3-.3-.6-.5-.9-.2-.3-.3-.6-.5-.9l-.2-.4.5.2c.5.2 1 .3 1.5.5s.9.4 1.4.6c.5.2.9.5 1.4.8.4.3.9.6 1.2.9-.4-.3-.9-.5-1.3-.8-.5-.2-.9-.4-1.4-.6-.5-.2-.9-.4-1.4-.6-.5-.2-1-.3-1.4-.5l.3-.3c.2.3.3.6.4.9.2.3.3.6.4.9l.3.6-.6-.4c-.7-.4-1.3-.8-1.9-1.3-.7-.3-1.4-.7-2-1.2z" fill="#1b141c" stroke-width="none" opacity="1"></path></g></g></g><g id="svga-group-beardwrap"><g id="svga-group-beard-single-move" transform="matrix(1,0,0,1,0,0)"><g id="svga-group-beard-single"></g></g></g><g id="svga-group-mustache-single-move" transform="matrix(1,0,0,1,0,0)"><g id="svga-group-mustache-single"><path id="SvgjsPath9836" d="m95.82 117.66.09-.27-.28.07-3.01.77.63-.98.36-.56-.66.15-2.27.53.43-1.07.24-.6-.63.16-2.93.73.42-.9.34-.74-.79.24c-.91.28-1.81.57-2.71.86l-.04-.61-.03-.43-.41.11-.83.22.5-.85.43-.73-.83.24-1.99.59.61-1.13.43-.81-.8.43-3.63 1.94.32-1 .09-.28-.27.1-1.32.49.27-1.05.03-.12-.11.06-1.12.62 1.06-.47-.36 1.09-.06.17.18-.05 1.23-.37-.44 1.15-.17.44.44-.21 3.29-1.6-.58.99-.39.67.76-.21 1.91-.54-.51.85-.43.72.82-.21 1.23-.31.04.65.03.46.45-.14c.79-.24 1.58-.5 2.37-.75l-.37.83-.3.68.71-.19 3.02-.79-.4 1.05-.23.59.6-.16 2.21-.59-.56.94-.32.53.58-.18 3.29-1-.31 1.1-.06.22.2-.08 2.83-1.11-2.69.83.4-1.18z" fill="#2a232b" stroke-width="none" opacity="1"></path><path id="SvgjsPath9837" d="m125.07 112.89-1-.12h-.03l-.02.02-.34.51-1.01-.44-.12-.05-.03.14-.14.74-1.75-.77-.27-.12-.01.31-.01.55-1.85-.66-.42-.15.08.45.14.82c-.75-.51-1.51-1.01-2.27-1.51l-.63-.42.12.75.37 2.32-1.24-.63-.4-.2-.12.43-.26.92-1.64-.51-.52-.16.06.54.09.87-2.41-.92-.37-.14-.07.39-.28 1.59-1.89-.62-.31-.1-.03.31-.14 1.39-1.81-1-.21-.12-.03.23-.21 1.66-2.21-1.13 2.24 1.38.12.08.03-.15.3-1.54 1.85 1.14.28.18.05-.34.2-1.39 1.91.72.34.13.07-.36.3-1.54 2.56 1.02.53.21-.05-.57-.08-.88 1.48.49.37.12.1-.38.24-.86 1.46.72.63.31-.12-.68-.39-2.26c.74.48 1.49.96 2.24 1.42l.6.37-.14-.67-.22-1.06 1.72.53.3.09-.01-.3-.01-.56 1.67.62.17.06.02-.17.1-.8.95.34.06.02.03-.05.32-.56h.97z" fill="#2a232b" stroke-width="none" opacity="1"></path></g></g><g id="svga-group-nose-single-move" transform="matrix(1,0,0,1,0,0)"><g id="svga-group-nose-single"><path id="SvgjsPath5882" d="M96.8 88.78c-.28 1.49-.54 2.98-.59 4.45 0 .36.01.73.07 1.07.02.18.08.32.12.48l.21.53c.27.71.52 1.43.75 2.16.22.73.41 1.48.53 2.25.05.39.09.78.07 1.19-.01.41-.13.85-.31 1.21-.36.72-.85 1.32-1.36 1.89-.52.56-1.07 1.09-1.66 1.56.47-.59.94-1.18 1.37-1.8.43-.61.84-1.24 1.11-1.89.13-.33.19-.63.18-.98 0-.35-.05-.71-.12-1.06a16.4 16.4 0 0 0-.55-2.14c-.21-.71-.45-1.42-.7-2.13l-.18-.54c-.05-.2-.12-.42-.13-.62-.06-.41-.03-.8 0-1.19.07-.78.24-1.53.43-2.26.22-.75.46-1.48.76-2.18z" fill="#82360f" stroke-width="none" opacity="1" stroke="none"></path><path id="SvgjsPath5883" d="M103.7 88.62c.49.61.9 1.27 1.26 1.96.09.17.18.35.26.53.04.1.08.17.12.28.03.11.08.23.09.33.08.43.07.83.05 1.23-.06.79-.22 1.55-.42 2.3-.19.75-.45 1.47-.71 2.2-.06-.79.05-1.56.12-2.31.09-.76.18-1.51.24-2.24.03-.36.04-.73 0-1.06-.02-.28-.19-.67-.3-1.02-.24-.72-.49-1.44-.71-2.2z" fill="#82360f" stroke-width="none" opacity="1" stroke="none"></path><path id="SvgjsPath5884" d="M109.24 107.49s1.28.96 1.53 1.77c.24.8-.32 2.57-1.12 2.65s-3.77-.64-4.17-.24c-.4.4-.8 4.42-2.01 4.9s-6.02.56-6.58-.32c-.56-.88-1.12-4.01-1.85-4.17-.72-.16-3.77.08-4.5 0-.72-.08-1.2-1.77-.32-3.45.88-1.69 4.74-3.53 7.39-3.69 2.65-.16 7.41.62 7.41.62s3.08 1.11 4.22 1.93z" fill="#a8623d" stroke-width="none" opacity="1" stroke="none"></path><path id="SvgjsPath5885" d="M109.24 107.49c.42.32.81.68 1.15 1.09.16.21.32.43.39.69.07.26.06.53.03.79-.08.52-.24 1.05-.56 1.48-.16.21-.4.4-.68.4-.27.01-.53-.02-.8-.05-.53-.06-1.05-.14-1.58-.19-.26-.03-.52-.05-.79-.07-.26-.01-.53-.02-.76.04-.06.02-.09.04-.12.07-.03.03-.05.09-.07.15-.04.12-.08.24-.11.37-.07.25-.12.51-.18.77-.11.52-.23 1.04-.37 1.55-.15.51-.31 1.03-.59 1.52-.15.24-.32.49-.64.64-.28.12-.55.17-.81.23-1.07.19-2.14.24-3.22.22-.54-.02-1.08-.05-1.63-.15-.27-.05-.55-.12-.84-.25-.14-.07-.3-.15-.44-.33-.11-.16-.16-.28-.23-.41-.44-1.02-.68-2.05-1.07-2.99-.1-.22-.21-.46-.33-.58-.03-.03-.05-.05-.06-.05-.01-.01 0 .01.01 0l-.07-.01c-.1-.01-.23-.02-.35-.03-.5-.02-1.03 0-1.56.01l-1.59.04c-.27 0-.53.01-.83-.01a.983.983 0 0 1-.31-.07c-.1-.04-.18-.11-.26-.17-.14-.13-.24-.27-.32-.42-.29-.59-.3-1.19-.24-1.76.08-.57.26-1.12.55-1.62.31-.52.73-.9 1.17-1.23.44-.33.9-.62 1.38-.87.95-.51 1.96-.9 3-1.18.52-.14 1.05-.24 1.58-.3.54-.06 1.08-.05 1.61-.03 1.06.04 2.12.15 3.17.29 1.05.13 2.1.28 3.14.46.72.28 1.45.57 2.16.89.36.16.71.32 1.05.5.36.16.71.34 1.02.57zm0 0c-.32-.22-.66-.4-1.01-.58-.35-.17-.7-.34-1.06-.49-.71-.31-1.43-.6-2.17-.86-2.09-.3-4.2-.52-6.31-.53-.52.01-1.05.02-1.56.1s-1.02.2-1.52.36c-.99.31-1.96.73-2.85 1.26-.45.26-.88.55-1.27.88-.39.32-.75.69-.97 1.09-.23.42-.38.9-.43 1.38-.05.47 0 .98.2 1.34.05.09.1.16.16.21.03.02.05.04.07.05.01.01.02.01.03.01h.05c.22.02.49.01.75 0l1.58-.05c.53-.02 1.06-.04 1.61-.01.14.01.28.01.44.04l.12.02c.07.02.14.05.19.08.11.06.18.14.24.2.23.28.34.53.45.79.21.52.37 1.03.53 1.53.16.5.3 1.01.49 1.47.04.1.11.23.14.29.02.03.1.09.19.13.19.09.43.16.68.21.49.1 1.01.16 1.53.19 1.04.06 2.09.05 3.12-.09.25-.04.51-.08.72-.16.18-.07.34-.25.47-.46.27-.42.45-.91.61-1.41.16-.5.3-1.01.43-1.52l.21-.77c.04-.13.08-.26.14-.39.03-.07.06-.13.12-.2a.46.46 0 0 1 .22-.13c.29-.07.56-.04.82-.02.27.02.53.06.79.1l1.57.24c.26.03.52.07.78.07.26.01.48-.17.64-.37.32-.41.5-.93.58-1.45.03-.26.04-.53-.02-.78-.07-.25-.22-.48-.38-.69-.31-.39-.7-.75-1.12-1.08z" fill="#82360f" stroke-width="none" opacity="1" stroke="none"></path></g></g><g id="svga-group-hair-front"><path id="SvgjsPath6873" d="M98.1 20.4s-7.2-5.9-16.9-6.4l1.7 3s-14.6-.6-27.6 11.1l3.6 2.2s-9.5 8.5-11 21c-1.4 12.5-.5 24.1-.5 24.1s4.5-1.4 5.8-2.7l1.6-4.4 3.3 10.3 5.9 5.5s-2-8.5-1.7-14.6c.3-6.1.6-7.8.6-7.8l.6 4.5s1.2 4.1 5 5.5c0 0-1.7-12.1.5-17.7 0 0 0 8.8 2.7 11.6 0 0 2.3-1.6 3.1-3s1.7-5.2 2.5-7.7 3.1-9.4 5.5-11.7c2.3-2.3 5-5.2 5-5.2s6.7 2 9.4 5.6c0 0 4.1-2.5 7.2-3.6 3.1-1.1 7.4-2.3 7.4-2.3s5.2 7.4 6.6 12.1 2.7 11 2.7 12.5.2 3 .2 3 2.5-1.1 3.8-2.7c0 0 3.4-.5 5.2-2 1.7-1.6 3.9-4.4 3.4-13.6 0 0 1.2.6 2 5.8s1.7 14.2.6 19.1c0 0 1.4-.3 3.1-1.7 0 0-1.2 9.7 0 13.6 0 0 2.5-4.5 4.2-6.7s3.1-6.3 3.1-6.3l1.1-5.2 4.4-.2s-.2-7.8-1.1-11.1c-.9-3.3-2.8-13.8-7.1-19.9s-11.9-10.3-13-11-14.9-7.2-27.7-3.1c0 0 6.3-5 15.8-3s10.8 5.2 10.8 5.2l2.2.9 1.6-.5s-4.5-6.7-12.8-8.3-17.3.4-22.8 5.8z" fill="#2a232b" stroke-width="none" opacity="1" stroke="none"></path><path id="SvgjsPath6874" d="M87.3 38.1c-3.6 2.7-6.3 6.4-8.2 10.5-2.1 4.6-2.3 9.7-4.8 13.8 1-4.6 1.8-9.2 3.1-13.7 1.4-4.9 2.7-11.2 6.8-14.6.3-.2-.1-.6-.3-.5-4 1.9-5.1 7.6-6.2 11.4-1.8 5.9-3.4 12.1-3.8 18.2-.5.7-1.1 1.4-1.9 2.1v.1c-.5-1.9-1.1-3.8-1.4-5.7-.4-2.5-.5-4.9-.7-7.3.2-1.5.5-3 .9-4.5 0-.2-.2-.3-.3-.1-.5 1.4-.8 2.9-1.2 4.3V52.4c-.8 3.4-1.2 6.9-1.3 10.5 0 1 .7 7.9.4 8-1 .5-3.7-3.4-4.3-4.3-.2-.2-.5 0-.3.2 1.3 2.6 2.8 4.3 5.1 6.2.4.3.8 0 .8-.4-.8-5.2-.8-10.2-.3-15.3.3 3.2 1.2 6.5 2.6 9.2.1.2.4.1.4-.2 0-.1-.1-.2-.1-.3.1.1.2.1.3 0 3.7-2.5 4.6-6.5 5.6-10.7 1.7-6.8 4.9-11.8 9.8-16.7-.1-.3-.4-.7-.7-.5zm-4.6-21.3c.2.2.6 0 .4-.3-.4-.7-.8-1.3-1.3-1.9 6.1.8 11.1 3.1 16.3 6.3.3.2.6-.2.4-.5-4.9-4.4-11.5-6.4-17.9-7-.5-.1-.6.6-.4.9.8.9 1.5 1.7 2.5 2.5zM54.6 29.2c1.1.4 2.2.6 3.4.8.4.1.6-.5.2-.7-3.9-1.4.3-3.2 2.4-4.6 2-1.3 4.1-2.5 6.2-3.5 4.9-2.2 9.9-3.1 15.1-4 .3 0 .2-.5-.1-.5-10.2-.1-19.9 5.1-27.5 11.6-.2.3-.1.8.3.9zm8.2 36.6c.1-.2.3-.4.4-.6l.3.9c.1.4.7.2.6-.2-.3-1.7-.6-3.4-.5-5.2 0-.4-.7-.5-.8-.1-1.3 7.6-1.1 15.3 1.1 22.7-.7-.8-1.4-1.4-2.2-2.2-.9-.9-1.8-1.9-2.9-2.7-.1-.1-.3-.1-.4 0-1-3.5-2.2-6.9-3.3-10.4-.1-.3-.5-.3-.6 0-.4 1.4-.9 2.8-1.2 4.2-.1 0-.3 0-.4.1-1.3 1.2-4.3 3.9-5.3 1.9-.3-.7-.1-2.3-.2-3.1-.1-2.3-.2-4.6-.2-6.9 0-5.4.5-10.8 1.8-16C52.7 34 62.6 26.1 76.1 21.6c.2-.1.1-.4-.1-.3-12.4 2.5-22.5 11-26.7 22.9-3.6 10.1-3.2 21-2.7 31.5 0 .3.3.5.6.5 2.5-.5 4.3-1.4 6.2-3.1.2-.2.2-.4.1-.5.4-1.1.8-2.2 1.1-3.3 1 3.3 1.9 6.7 3 10 .1.3.5.3.7.1.7.9 1.6 1.7 2.4 2.5.9.9 1.8 1.9 2.8 2.7.1.1.3.1.4 0 .1.2.4.1.4-.2-1.2-5-2.1-10-2-15.2.3-1.1.4-2.3.5-3.4zm69.4-42.1c.6 0 1.2-.1 1.7-.1s.7-.6.4-.9c-9.4-10.7-25.2-12.2-36-2.6-.2.1.1.4.2.3 5.5-3.9 11.9-6.3 18.7-5.7 3.5.3 6.9 1.5 9.9 3.3 1.5.9 3.4 1.9 4.4 3.4.9 1.4 1.1 1.4-.1 1.5-.1-.1-.2-.1-.3-.2-7.6-7.3-19.4-8.2-28.2-2.4-.2.1 0 .4.2.3 8.6-4.7 17.3-4.3 25 .9-7.7-2.9-16.7-2.8-24.5-1-.2.1-.1.4.1.4 9.5-1.7 17.5-.3 26.4 2.4-.1.2.1.6.4.6h1.3c-.1.1-.1.2 0 .3 8.1 5.1 13.5 11.9 16.5 21 1.6 5 2.5 10.1 3.1 15.3.2 1.4.7 3.1.1 4.3.2-.5-2.4.8-3.1 1.2-.2.2 0 .7.3.6h3.7c.3.1.7-.2.7-.5-1.7-15.8-4.7-35.3-20.9-42.4zm16.1 42.2c1.1-6.7.4-14-2.7-19.9-.1-.2-.5-.1-.4.2 2.3 8.8 3.2 16.4 1.1 25.3-2.5 3.6-4.5 7.6-6.7 11.3-.5-4.2-.3-8.2.3-12.4 3.4-2.8 5.8-6.5 5.9-11.2 0-.4-.6-.5-.6-.1-.4 2.2-1.1 4.4-2.2 6.3-.2.3-1.5 1.9-2.8 3.4-.1-.2-.5-.3-.6 0-.1.3-.1.5-.2.8-1.1 1.1-2.1 1.9-2.4 1.6-.6-.6.1-3.1.1-3.9.2-2.3.2-4.5.1-6.8-.3-8.1-2.4-16.2-6.4-23.2-.2-.3-.5 0-.4.2.1.2.1.4.2.5v.1c1.3 4.3 2.6 8.4 2.6 12.9 0 2.8-.2 6.5-2.3 8.6-1.4 1.4-3.4 2-5.4 2.6 2.1-3.4 2.1-8 1.2-12.1 0-.2-.2-.2-.3-.2 0-6.3-4.8-13.8-10.4-16.6-.1 0-.2 0-.3.1-6.6 1.6-13.2 5.1-18.1 9.9-2.4-2.4-5.7-4.7-9.1-5.2-.5-.1-.6.5-.2.7 3.4 1.4 6.3 2.7 8.9 5.2.3.3.6 0 .7-.2 2.3-1.4 4.8-2.5 7.3-3.4 1.2-.4 2.4-.8 3.7-1.2.8-.3 2.3-.9 3.1-.9v.2c5 8.6 8.4 16.7 8.8 26.8 0 .4.4.6.8.4 1.5-.7 2.7-1.7 3.5-2.9 4.5-.9 7.8-2.5 8.7-7.5.4-2.4.5-5 .3-7.6 2.2 7.9 2.8 16 1.3 24.5-.1.5.4.8.8.6 1-.5 2-1.1 2.9-1.8-.9 4.4-.8 8.9-.1 13.3.1.4.7.4.9.1 2.6-4.4 5.5-8.7 7.6-13.4.1-.2 0-.4-.2-.5.3-1.4.7-3 1-4.6 0 0 .1 0 .2-.1l.1-.1c-.2.1-.3.1-.3.2zm-26.4-2c-1.1-1.4-1.1-7-1.6-8.8-1.5-6-4-12.1-8-16.9.2-.3.2-.8-.3-.9-.8-.1-.9 0-1.6.2-1.7.5-3.5 1.3-5.2 1.9-1.3.5-2.6 1.1-3.8 1.7 4.4-3 8.9-5.1 14.4-6.7.1 0 .2-.1.2-.2 2.4 2.1 4.6 4 6.3 6.8 1.8 2.9 2.5 6 3.3 9.3 0 .1.1.2.3.2 0 2.2.3 4.5 0 6.7-.1.6-.9 3.6-1.8 5.5h-.1c-.2 0-.2.2-.1.3-.6 1.1-1.4 1.8-2 .9zM86.2 33.6c-.2-.1-.3.2-.1.3 3.2 1.3 5.7 3.3 8.3 5.4.2.2.6-.1.4-.3-2.1-2.8-5.4-4.5-8.6-5.4zm-26.6 4.8c-5 6.1-7.4 15.2-7.2 23.1-.7.2-1.4.5-2 .9.5-9.8 3.6-18.4 9-26.5.1-.2-.2-.4-.3-.2-5.9 7.8-8.9 17.1-9.4 26.8 0 .3.3.4.5.3.1.1.2.2.3.1.7-.2 1.5-.5 2.1-.8.2.1.4 0 .4-.2v-.2c.7-8.7 3.1-15.2 6.9-23 .1-.3-.1-.5-.3-.3z" fill="#1b141c" stroke-width="none" opacity="1" stroke="none"></path></g><g id="svga-group-glasses-single-move" transform="matrix(1,0,0,1,0,0)"><g id="svga-group-glasses-single"></g></g></g></g></g><rect id="svga-credit-rect" width="200" height="15" x="0" y="185" fill="#ecf0f1" opacity="0.5" style="display: none;"></rect><text id="svga-credit-text" font-family="Avenir Next, Roboto, Helvetica, Arial, sans-serif" font-size="10px" text-anchor="start" font-weight="400" size="10px" anchor="start" weight="400" fill="#333333" x="33.40447998046875" y="182.60824704170227" style="display: none;"><tspan id="SvgjsTspan5056" dy="13" x="33.40447998046875">Created on AvatarMaker.com</tspan></text></g><defs id="SvgjsDefs5003"><linearGradient id="SvgjsLinearGradient5795" x1="99.7642" y1="100.53" x2="99.7642" y2="113.2523" gradientUnits="userSpaceOnUse" class="svga-on-canvas-nose-gradient-single-0-null"><stop id="SvgjsStop5796" stop-opacity="0" stop-color="#f0c7b1" offset="0" ></stop><stop id="SvgjsStop5797" stop-opacity="1" stop-color="#e8b9a0" offset="1" ></stop></linearGradient><linearGradient id="SvgjsLinearGradient5816" x1="100.0394" y1="79.6722" x2="100.0394" y2="122.2396" gradientUnits="userSpaceOnUse" class="svga-on-canvas-nose-gradient-single-0-null"><stop id="SvgjsStop5817" stop-opacity="0" stop-color="#ffe4d6" offset="0" ></stop><stop id="SvgjsStop5818" stop-opacity="0.9727" stop-color="#f0c7b1" offset="0.7584" ></stop><stop id="SvgjsStop5819" stop-opacity="0.9769" stop-color="#e8b9a0" offset="0.7953" ></stop><stop id="SvgjsStop5820" stop-opacity="0.9852" stop-color="#e1ac8f" offset="0.8691" ></stop><stop id="SvgjsStop5821" stop-opacity="0.9968" stop-color="#d19271" offset="0.972" ></stop><stop id="SvgjsStop5822" stop-opacity="1" stop-color="#c27b55" offset="1" ></stop></linearGradient></defs></svg>